<svg width="344" height="143" viewBox="0 0 344 143" fill="none" xmlns="http://www.w3.org/2000/svg">
<path d="M15.4427 60.064C14.1058 59.936 12.7689 59.936 11.432 60.064C11.4036 60.0213 11.3893 59.936 11.3893 59.808C11.3893 59.68 11.4036 59.5876 11.432 59.5307C11.7307 59.5307 11.9511 59.5022 12.0933 59.4453C12.2356 59.3742 12.3138 59.3173 12.328 59.2747C12.3991 59.1324 12.4347 58.9547 12.4347 58.7413C12.4489 58.528 12.456 58.2649 12.456 57.952V51.36H11.1333C10.7778 51.36 10.4507 51.5449 10.152 51.9147C9.86756 52.2844 9.69689 52.6969 9.64 53.152C9.61156 53.1947 9.56178 53.216 9.49067 53.216C9.29156 53.216 9.15644 53.1804 9.08533 53.1093L9.46933 50.528C9.49778 50.5138 9.512 50.5067 9.512 50.5067C9.52622 50.4924 9.56178 50.4853 9.61867 50.4853C9.68978 50.4853 9.76089 50.4996 9.832 50.528C9.90311 50.5564 9.98844 50.5849 10.088 50.6133C10.3867 50.6987 10.7209 50.7413 11.0907 50.7413H15.7627C16.2889 50.7413 16.7084 50.6702 17.0213 50.528C17.0924 50.4996 17.1564 50.4853 17.2133 50.4853C17.2844 50.4853 17.3484 50.4996 17.4053 50.528L17.7893 53.1093C17.7182 53.1804 17.6116 53.216 17.4693 53.216C17.3271 53.216 17.2489 53.1947 17.2347 53.152C17.1493 52.6684 17 52.2987 16.7867 52.0427C16.4311 51.5876 16.0756 51.36 15.72 51.36H14.4187V57.952C14.4187 58.6631 14.4542 59.104 14.5253 59.2747C14.5822 59.4453 14.888 59.5307 15.4427 59.5307C15.4711 59.5876 15.4853 59.68 15.4853 59.808C15.4853 59.936 15.4711 60.0213 15.4427 60.064ZM20.1988 56.032C20.2273 56.032 20.3197 56.032 20.4762 56.032C20.6468 56.0178 20.8317 56.0036 21.0308 55.9893C21.4859 55.9751 21.8131 55.9538 22.0122 55.9253C22.1402 55.9111 22.2042 55.8329 22.2042 55.6907C22.2042 55.5342 22.1899 55.3707 22.1615 55.2C22.1331 55.0293 22.0833 54.88 22.0122 54.752C21.8557 54.4391 21.6495 54.2827 21.3935 54.2827C21.1517 54.2827 20.9597 54.3538 20.8175 54.496C20.6753 54.624 20.5544 54.7804 20.4548 54.9653C20.2842 55.3351 20.1988 55.6907 20.1988 56.032ZM23.5695 56.416C22.7162 56.4871 21.5926 56.544 20.1988 56.5867C20.1988 57.4542 20.4406 58.0942 20.9242 58.5067C21.2939 58.8053 21.6922 58.9547 22.1188 58.9547C22.5597 58.9547 22.9011 58.8764 23.1428 58.72C23.3846 58.5636 23.5837 58.4071 23.7402 58.2507C23.8539 58.2791 23.9108 58.3573 23.9108 58.4853C23.9108 58.6133 23.8824 58.72 23.8255 58.8053C23.7828 58.8764 23.6904 58.9902 23.5482 59.1467C23.4059 59.2889 23.2282 59.4311 23.0148 59.5733C22.4744 59.9431 21.9553 60.128 21.4575 60.128C20.9597 60.128 20.5331 60.064 20.1775 59.936C19.8219 59.7938 19.5091 59.5947 19.2388 59.3387C18.6557 58.784 18.3642 58.0658 18.3642 57.184C18.3642 56.2738 18.6771 55.4773 19.3028 54.7947C19.9713 54.0693 20.6966 53.7067 21.4788 53.7067C22.3179 53.7067 22.9579 53.9556 23.3988 54.4533C23.7686 54.8516 23.9535 55.3138 23.9535 55.84C23.9535 55.9964 23.9179 56.1316 23.8468 56.2453C23.7757 56.3591 23.6833 56.416 23.5695 56.416ZM27.2198 59.1253C27.4047 59.1253 27.5469 59.0898 27.6465 59.0187C27.7603 58.9333 27.8172 58.8693 27.8172 58.8267V56.864C27.6607 56.9351 27.4972 57.0062 27.3265 57.0773C27.1701 57.1342 27.0065 57.2196 26.8358 57.3333C26.5229 57.5467 26.3665 57.8311 26.3665 58.1867C26.3807 58.5422 26.4803 58.7911 26.6652 58.9333C26.8501 59.0613 27.0349 59.1253 27.2198 59.1253ZM30.3772 58.912C30.4483 58.9547 30.4838 59.0187 30.4838 59.104C30.4838 59.1893 30.4625 59.2747 30.4198 59.36C30.3345 59.4453 30.1852 59.5591 29.9718 59.7013C29.5878 59.9573 29.2678 60.0853 29.0118 60.0853C28.7558 60.0853 28.5212 60.0142 28.3078 59.872C28.1087 59.7156 27.9736 59.552 27.9025 59.3813C27.7034 59.5804 27.4189 59.7511 27.0492 59.8933C26.6936 60.0356 26.4163 60.1067 26.2172 60.1067C26.0181 60.1067 25.8047 60.0569 25.5772 59.9573C25.3496 59.8578 25.1576 59.7298 25.0012 59.5733C24.6456 59.2178 24.4678 58.8622 24.4678 58.5067C24.4678 58.1511 24.5389 57.8738 24.6812 57.6747C24.8376 57.4613 24.9941 57.3333 25.1505 57.2907C25.3212 57.2338 25.5132 57.1627 25.7265 57.0773C25.9541 56.992 26.1958 56.8996 26.4518 56.8C26.7789 56.6862 27.2341 56.5156 27.8172 56.288V55.6267C27.8172 55.2711 27.7389 54.9511 27.5825 54.6667C27.4261 54.368 27.2198 54.2187 26.9638 54.2187C26.7078 54.2187 26.5229 54.3324 26.4092 54.56C26.3096 54.7876 26.2385 55.0222 26.1958 55.264C26.0821 55.7618 25.8047 56.0107 25.3638 56.0107C25.1789 56.0107 25.0083 55.9538 24.8518 55.84C24.7096 55.712 24.6385 55.5769 24.6385 55.4347C24.6385 55.2356 24.7025 55.008 24.8305 54.752C24.9869 54.5956 25.2429 54.4249 25.5985 54.24C26.3238 53.8702 26.9709 53.6853 27.5398 53.6853C28.1229 53.6853 28.6136 53.8844 29.0118 54.2827C29.4243 54.6809 29.6305 55.2 29.6305 55.84V58.464C29.6305 58.6631 29.6661 58.8124 29.7372 58.912C29.8083 58.9973 29.8865 59.04 29.9718 59.04C30.0714 59.04 30.1567 59.0187 30.2278 58.976L30.3772 58.912ZM32.8566 59.9573C32.2735 59.9573 31.6264 59.9929 30.9153 60.064C30.8868 60.0213 30.8726 59.936 30.8726 59.808C30.8726 59.68 30.8868 59.5876 30.9153 59.5307C31.2139 59.5307 31.4344 59.5022 31.5766 59.4453C31.7188 59.3742 31.8041 59.3173 31.8326 59.2747C31.9037 59.104 31.9392 58.6631 31.9392 57.952V56.1173C31.9392 56.0036 31.925 55.8329 31.8966 55.6053C31.8681 55.3778 31.8397 55.2356 31.8112 55.1787C31.7117 54.9938 31.413 54.9013 30.9153 54.9013C30.8868 54.8871 30.8726 54.816 30.8726 54.688C30.8868 54.5458 30.9081 54.4747 30.9366 54.4747C31.477 54.432 32.0032 54.3324 32.5152 54.176C33.0272 54.0053 33.4184 53.856 33.6886 53.728C33.7312 53.7422 33.781 53.7778 33.8379 53.8347C33.8948 53.8916 33.9161 53.9342 33.9019 53.9627C33.845 54.2044 33.8095 54.4107 33.7952 54.5813C33.781 54.752 33.781 54.8373 33.7952 54.8373C33.8095 54.8373 33.8237 54.8302 33.8379 54.816C33.8521 54.8018 33.8735 54.7876 33.9019 54.7733C34.101 54.5458 34.3428 54.3467 34.6272 54.176C35.125 53.8773 35.5659 53.728 35.9499 53.728C36.3481 53.728 36.6752 53.8133 36.9313 53.984C37.2015 54.1547 37.4219 54.4676 37.5926 54.9227C37.621 54.9227 37.6708 54.8871 37.7419 54.816C37.813 54.7307 37.9339 54.624 38.1046 54.496C38.2895 54.368 38.4886 54.2471 38.7019 54.1333C39.2139 53.8631 39.6406 53.728 39.9819 53.728C40.3375 53.728 40.6361 53.7991 40.8779 53.9413C41.1339 54.0693 41.3259 54.2684 41.4539 54.5387C41.6957 55.0222 41.8166 55.8542 41.8166 57.0347V57.952C41.8166 58.2649 41.8166 58.528 41.8166 58.7413C41.8308 58.9547 41.8592 59.1111 41.9019 59.2107C41.9446 59.296 42.0015 59.36 42.0726 59.4027C42.1579 59.4311 42.2504 59.4596 42.3499 59.488C42.4921 59.5164 42.6557 59.5307 42.8406 59.5307C42.869 59.5876 42.8833 59.68 42.8833 59.808C42.8833 59.936 42.869 60.0213 42.8406 60.064C42.1295 59.9929 41.5108 59.9573 40.9846 59.9573C40.4726 59.9573 39.861 59.9929 39.1499 60.064C39.1215 60.0213 39.1073 59.936 39.1073 59.808C39.1073 59.68 39.1215 59.5876 39.1499 59.5307C39.2353 59.5307 39.3704 59.5164 39.5553 59.488C39.7401 59.4453 39.8468 59.3742 39.8752 59.2747C39.9464 59.1324 39.9819 58.9547 39.9819 58.7413C39.9961 58.528 40.0033 58.2649 40.0033 57.952V56.8427C40.0033 55.9467 39.8326 55.3422 39.4913 55.0293C39.3775 54.9156 39.2352 54.8587 39.0646 54.8587C38.9081 54.8587 38.7517 54.8871 38.5953 54.944C38.4388 55.0009 38.2966 55.0649 38.1686 55.136C37.8699 55.3209 37.7206 55.4844 37.7206 55.6267V55.712C37.7632 56.1244 37.7846 56.5653 37.7846 57.0347V57.952C37.7846 58.6631 37.8059 59.0756 37.8486 59.1893C37.8912 59.2889 37.9481 59.36 38.0192 59.4027C38.1046 59.4311 38.197 59.4596 38.2966 59.488C38.4388 59.5164 38.5953 59.5307 38.7659 59.5307C38.7944 59.5876 38.8086 59.68 38.8086 59.808C38.8086 59.936 38.7944 60.0213 38.7659 60.064C38.0548 59.9929 37.4219 59.9573 36.8672 59.9573C36.3837 59.9573 35.7864 59.9929 35.0753 60.064C35.0468 60.0213 35.0326 59.936 35.0326 59.808C35.0326 59.68 35.0468 59.5876 35.0753 59.5307C35.1748 59.5307 35.317 59.5164 35.5019 59.488C35.701 59.4453 35.8219 59.36 35.8646 59.232C35.9215 59.0756 35.9499 58.6489 35.9499 57.952V56.8427C35.9499 55.52 35.637 54.8587 35.0113 54.8587C34.741 54.8587 34.5064 54.9227 34.3073 55.0507C33.9517 55.3067 33.7739 55.5058 33.7739 55.648V57.952C33.7739 58.6631 33.7953 59.0756 33.8379 59.1893C33.8806 59.2889 33.9375 59.36 34.0086 59.4027C34.0797 59.4311 34.1579 59.4596 34.2432 59.488C34.3855 59.5164 34.5348 59.5307 34.6912 59.5307C34.7197 59.5876 34.7339 59.68 34.7339 59.808C34.7339 59.936 34.7197 60.0213 34.6912 60.064C33.9801 59.9929 33.3686 59.9573 32.8566 59.9573Z" fill="#DBFFFE"/>
<path d="M251.5 44.941V43.6792C251.5 43.4286 251.197 43.3031 251.02 43.4803C251.007 43.4934 250.992 43.5052 250.977 43.5155L250.391 43.9058C250.1 44.0999 249.728 43.8158 249.839 43.4838L249.908 43.2757C249.953 43.14 249.852 43 249.709 43C249.594 43 249.5 42.9062 249.5 42.7906V39.4634C249.5 39.1558 249.46 38.8495 249.381 38.5522L247.691 32.2146C247.564 31.7402 247.5 31.2514 247.5 30.7604C247.5 29.0187 248.304 27.3746 249.679 26.3053L251.503 24.8862C251.832 24.6304 252.118 24.3233 252.349 23.9766C252.773 23.3398 253 22.5916 253 21.8263V16.3585C253 15.4727 252.738 14.6067 252.246 13.8697C252.083 13.6238 251.895 13.3948 251.686 13.1858L251 12.5L248.5 10.5L248.354 10.3536C248.223 10.2231 248.315 10 248.5 10H251.5H252.412C253.131 10 253.845 9.8706 254.519 9.61798L257.046 8.67036C257.348 8.55697 257.659 8.46818 257.976 8.40485L261.033 7.79348C261.996 7.60078 262.992 7.64766 263.933 7.93001L267.004 8.8512C267.334 8.95021 267.655 9.07748 267.963 9.23159L271.5 11L272.002 11.3344C272.661 11.7738 273.226 12.3393 273.666 12.9985L274 13.5L276 16L276.43 16.6449C276.807 17.2108 277.278 17.7085 277.822 18.1167L279 19L284 23.5L288 28L290.751 31.2091C290.916 31.4023 291.058 31.6151 291.171 31.8427L291.276 32.0528C291.423 32.3469 291.5 32.6712 291.5 33V33.3374C291.5 33.4443 291.475 33.5498 291.427 33.6454L291.115 34.2692C291.059 34.3827 290.907 34.4073 290.818 34.3175C290.7 34.2003 290.5 34.2833 290.5 34.449V35.3788C290.5 35.4587 290.517 35.5377 290.549 35.6108L292.404 39.7829C292.449 39.885 292.374 40 292.262 40C292.145 40 292.07 40.1265 292.127 40.2294L294.452 44.4132C294.484 44.471 294.511 44.5315 294.531 44.5942L294.849 45.5467C294.923 45.7697 294.757 46 294.522 46C294.275 46 294.108 46.2528 294.206 46.48L297 53L300.5 59L303.5 64.5L308 72.5L313 81L320.299 95.1686C320.847 96.2329 320.075 97.5 318.877 97.5C318.629 97.5 318.384 97.4422 318.162 97.3312L313.5 95L313.138 94.819C312.786 94.6428 312.357 94.7856 312.181 95.1379C312.069 95.3625 312.083 95.6295 312.218 95.8411L331.378 125.809C331.458 125.934 331.5 126.078 331.5 126.226V126.351C331.5 126.709 331.209 127 330.851 127C330.632 127 330.428 126.89 330.308 126.707L321 112.5L313 99.5L308.566 93.2923C308.191 92.7675 307.734 92.3066 307.213 91.9273L302.599 88.5722C302.535 88.5253 302.457 88.5 302.377 88.5C302.169 88.5 302 88.6689 302 88.8773V88.9452C302 88.9816 302.004 89.0179 302.013 89.0532L302.5 91L303.5 94L308 104.5L314.5 117.5L319.5 128.5L322.271 134.504C322.399 134.781 322.284 135.108 322.012 135.244C321.731 135.385 321.388 135.268 321.252 134.984L315.5 123L309 109.5L302.5 98.5L297 89L294.5 85L293.401 83.0773C292.814 82.0488 291.935 81.2173 290.875 80.6876L290.371 80.4354C289.794 80.147 289.268 79.7675 288.812 79.3115L288.16 78.6599C288.054 78.554 287.932 78.4658 287.798 78.3988C287.311 78.1557 286.728 78.2175 286.304 78.5571L284.914 79.6689C284.639 79.8887 284.393 80.1425 284.182 80.424L283.157 81.7912C283.053 81.9298 282.967 82.0815 282.903 82.2423L282.383 83.5426C282.186 84.036 281.584 84.2228 281.142 83.928C280.779 83.6862 280.663 83.2065 280.875 82.8255L282.71 79.5226C282.9 79.1792 283.171 78.8863 283.497 78.6684L285.296 77.4692C285.66 77.2264 285.711 76.7113 285.402 76.4019C285.168 76.1682 284.802 76.132 284.527 76.3153L282.646 77.5695C282.221 77.853 281.864 78.2273 281.601 78.6655L280.672 80.2126C280.558 80.4036 280.464 80.6066 280.394 80.8179L279.808 82.5759C279.634 83.0974 279.088 83.3971 278.555 83.2638C277.978 83.1195 277.635 82.5261 277.799 81.9543L278.348 80.0304C278.449 79.6798 278.612 79.3504 278.831 79.0587L279.744 77.8411C279.915 77.614 280.101 77.3992 280.302 77.1985L282.5 75C282.773 74.7274 282.763 74.2827 282.479 74.0222L277 69L272.5 65C271.167 64 268.1 61.8 266.5 61C264.9 60.2 263.833 59.3333 263.5 59L260 56L254.371 50.3708C253.796 49.7963 253.344 49.111 253.043 48.3565L252.579 47.1975C252.527 47.067 252.5 46.9278 252.5 46.7873V45.559C252.5 45.3022 252.23 45.1351 252 45.25C251.77 45.3649 251.5 45.1978 251.5 44.941Z" fill="#DBFFFE"/>
<mask id="mask0_5_92" style="mask-type:alpha" maskUnits="userSpaceOnUse" x="9" y="64" width="285" height="57">
<rect x="9" y="110" width="285" height="11" fill="#D9D9D9"/>
<rect x="9" y="64" width="285" height="11" fill="#D9D9D9"/>
<rect x="9" y="79" width="285" height="12" fill="#D9D9D9"/>
<rect x="9" y="95" width="285" height="11" fill="#A33A3A"/>
</mask>
<g mask="url(#mask0_5_92)">
<path d="M274.75 115.072C275.859 115.072 276.713 114.859 277.31 114.432C277.993 113.92 278.334 113.536 278.334 113.28V101.504C277.395 101.931 276.414 102.357 275.39 102.784C274.451 103.125 273.47 103.637 272.446 104.32C270.569 105.6 269.63 107.307 269.63 109.44C269.715 111.573 270.313 113.067 271.422 113.92C272.531 114.688 273.641 115.072 274.75 115.072ZM293.694 113.792C294.121 114.048 294.334 114.432 294.334 114.944C294.334 115.456 294.206 115.968 293.95 116.48C293.438 116.992 292.542 117.675 291.262 118.528C288.958 120.064 287.038 120.832 285.502 120.832C283.966 120.832 282.558 120.405 281.278 119.552C280.083 118.613 279.273 117.632 278.846 116.608C277.651 117.803 275.945 118.827 273.726 119.68C271.593 120.533 269.929 120.96 268.734 120.96C267.539 120.96 266.259 120.661 264.894 120.064C263.529 119.467 262.377 118.699 261.438 117.76C259.305 115.627 258.238 113.493 258.238 111.36C258.238 109.227 258.665 107.563 259.518 106.368C260.457 105.088 261.395 104.32 262.334 104.064C263.358 103.723 264.51 103.296 265.79 102.784C267.155 102.272 268.606 101.717 270.142 101.12C272.105 100.437 274.835 99.4133 278.334 98.048V94.08C278.334 91.9467 277.865 90.0267 276.926 88.32C275.987 86.528 274.75 85.632 273.214 85.632C271.678 85.632 270.569 86.3147 269.886 87.68C269.289 89.0453 268.862 90.4533 268.606 91.904C267.923 94.8907 266.259 96.384 263.614 96.384C262.505 96.384 261.481 96.0427 260.542 95.36C259.689 94.592 259.262 93.7813 259.262 92.928C259.262 91.7333 259.646 90.368 260.414 88.832C261.353 87.8933 262.889 86.8693 265.022 85.76C269.374 83.5413 273.257 82.432 276.67 82.432C280.169 82.432 283.113 83.6267 285.502 86.016C287.977 88.4053 289.214 91.52 289.214 95.36V111.104C289.214 112.299 289.427 113.195 289.854 113.792C290.281 114.304 290.75 114.56 291.262 114.56C291.859 114.56 292.371 114.432 292.798 114.176L293.694 113.792Z" fill="url(#paint0_linear_5_92)"/>
<path d="M228.781 87.04C229.463 86.1013 230.359 85.1627 231.469 84.224H235.181V79.744C236.802 78.2933 238.338 76.7573 239.789 75.136C241.325 73.5147 242.733 72.064 244.013 70.784C244.525 70.4427 244.994 70.3147 245.421 70.4C245.847 70.4 246.103 70.528 246.189 70.784V84.224H255.789C256.13 84.224 256.301 84.6507 256.301 85.504C256.301 86.272 255.661 87.168 254.381 88.192H246.189V109.056C246.189 113.323 247.725 115.456 250.797 115.456C251.735 115.456 252.674 115.2 253.613 114.688C254.551 114.091 255.106 113.707 255.277 113.536C255.618 113.877 255.789 114.176 255.789 114.432C255.789 115.2 255.618 115.755 255.277 116.096C255.021 116.437 254.594 116.864 253.997 117.376C253.485 117.888 252.845 118.4 252.077 118.912C249.858 120.277 247.981 120.96 246.445 120.96C244.994 120.96 243.586 120.747 242.221 120.32C240.941 119.979 239.789 119.296 238.765 118.272C236.375 116.139 235.181 112.896 235.181 108.544V88.192H229.165C228.909 88.0213 228.781 87.6373 228.781 87.04Z" fill="url(#paint1_linear_5_92)"/>
<path d="M205.343 96.512C205.513 96.512 206.068 96.512 207.007 96.512C208.031 96.4267 209.14 96.3413 210.335 96.256C213.065 96.1707 215.028 96.0427 216.223 95.872C216.991 95.7867 217.375 95.3173 217.375 94.464C217.375 93.5253 217.289 92.544 217.119 91.52C216.948 90.496 216.649 89.6 216.223 88.832C215.284 86.9547 214.047 86.016 212.511 86.016C211.06 86.016 209.908 86.4427 209.055 87.296C208.201 88.064 207.476 89.0027 206.879 90.112C205.855 92.3307 205.343 94.464 205.343 96.512ZM225.567 98.816C220.447 99.2427 213.705 99.584 205.343 99.84C205.343 105.045 206.793 108.885 209.695 111.36C211.913 113.152 214.303 114.048 216.863 114.048C219.508 114.048 221.556 113.579 223.007 112.64C224.457 111.701 225.652 110.763 226.591 109.824C227.273 109.995 227.615 110.464 227.615 111.232C227.615 112 227.444 112.64 227.103 113.152C226.847 113.579 226.292 114.261 225.439 115.2C224.585 116.053 223.519 116.907 222.239 117.76C218.996 119.979 215.881 121.088 212.895 121.088C209.908 121.088 207.348 120.704 205.215 119.936C203.081 119.083 201.204 117.888 199.583 116.352C196.084 113.024 194.335 108.715 194.335 103.424C194.335 97.9627 196.212 93.184 199.967 89.088C203.977 84.736 208.329 82.56 213.023 82.56C218.057 82.56 221.897 84.0533 224.543 87.04C226.761 89.4293 227.871 92.2027 227.871 95.36C227.871 96.2987 227.657 97.1093 227.231 97.792C226.804 98.4747 226.249 98.816 225.567 98.816Z" fill="url(#paint2_linear_5_92)"/>
<path d="M158.008 120.064C154.509 120.064 150.627 120.277 146.36 120.704C146.189 120.448 146.104 119.936 146.104 119.168C146.104 118.4 146.189 117.845 146.36 117.504C148.152 117.504 149.475 117.333 150.328 116.992C151.181 116.565 151.693 116.224 151.864 115.968C152.291 114.944 152.504 112.299 152.504 108.032V97.024C152.504 96.3413 152.419 95.3173 152.248 93.952C152.077 92.5867 151.907 91.7333 151.736 91.392C151.139 90.2827 149.347 89.728 146.36 89.728C146.189 89.6427 146.104 89.216 146.104 88.448C146.189 87.5947 146.317 87.168 146.488 87.168C149.731 86.912 152.888 86.3147 155.96 85.376C159.032 84.352 161.379 83.456 163 82.688C163.256 82.688 163.555 82.9013 163.896 83.328C164.237 83.6693 164.365 83.9253 164.28 84.096C164.28 84.2667 164.237 84.608 164.152 85.12C164.152 85.5467 164.067 86.1013 163.896 86.784C163.469 88.4907 163.384 89.344 163.64 89.344C163.725 89.344 163.811 89.3013 163.896 89.216C163.981 89.1307 164.109 89.0453 164.28 88.96C165.475 87.5947 166.925 86.4 168.632 85.376C171.619 83.584 174.179 82.688 176.312 82.688C178.531 82.688 180.365 83.1147 181.816 83.968C183.352 84.736 184.547 85.9307 185.4 87.552C186.851 90.4533 187.576 95.4453 187.576 102.528V108.032C187.576 112.299 187.704 114.773 187.96 115.456C188.216 116.053 188.557 116.48 188.984 116.736C189.496 116.907 190.051 117.077 190.648 117.248C191.672 117.419 192.653 117.504 193.592 117.504C193.848 117.845 193.933 118.4 193.848 119.168C193.848 119.936 193.763 120.448 193.592 120.704C189.581 120.277 185.741 120.064 182.072 120.064C179.256 120.064 175.715 120.277 171.448 120.704C171.277 120.448 171.192 119.936 171.192 119.168C171.192 118.4 171.277 117.845 171.448 117.504C172.045 117.504 172.899 117.419 174.008 117.248C175.117 116.992 175.8 116.48 176.056 115.712C176.397 114.773 176.568 112.213 176.568 108.032V101.376C176.568 93.44 174.691 89.472 170.936 89.472C169.315 89.472 167.907 89.856 166.712 90.624C164.579 92.16 163.512 93.3547 163.512 94.208V108.032C163.512 112.299 163.64 114.773 163.896 115.456C164.152 116.053 164.493 116.48 164.92 116.736C165.347 116.907 165.816 117.077 166.328 117.248C167.181 117.419 168.077 117.504 169.016 117.504C169.187 117.845 169.272 118.4 169.272 119.168C169.272 119.936 169.187 120.448 169.016 120.704C164.749 120.277 161.08 120.064 158.008 120.064Z" fill="url(#paint3_linear_5_92)"/>
<path d="M120.874 96.512C121.045 96.512 121.599 96.512 122.538 96.512C123.562 96.4267 124.671 96.3413 125.866 96.256C128.597 96.1707 130.559 96.0427 131.754 95.872C132.522 95.7867 132.906 95.3173 132.906 94.464C132.906 93.5253 132.821 92.544 132.65 91.52C132.479 90.496 132.181 89.6 131.754 88.832C130.815 86.9547 129.578 86.016 128.042 86.016C126.591 86.016 125.439 86.4427 124.586 87.296C123.733 88.064 123.007 89.0027 122.41 90.112C121.386 92.3307 120.874 94.464 120.874 96.512ZM141.098 98.816C135.978 99.2427 129.237 99.584 120.874 99.84C120.874 105.045 122.325 108.885 125.226 111.36C127.445 113.152 129.834 114.048 132.394 114.048C135.039 114.048 137.087 113.579 138.538 112.64C139.989 111.701 141.183 110.763 142.122 109.824C142.805 109.995 143.146 110.464 143.146 111.232C143.146 112 142.975 112.64 142.634 113.152C142.378 113.579 141.823 114.261 140.97 115.2C140.117 116.053 139.05 116.907 137.77 117.76C134.527 119.979 131.413 121.088 128.426 121.088C125.439 121.088 122.879 120.704 120.746 119.936C118.613 119.083 116.735 117.888 115.114 116.352C111.615 113.024 109.866 108.715 109.866 103.424C109.866 97.9627 111.743 93.184 115.498 89.088C119.509 84.736 123.861 82.56 128.554 82.56C133.589 82.56 137.429 84.0533 140.074 87.04C142.293 89.4293 143.402 92.2027 143.402 95.36C143.402 96.2987 143.189 97.1093 142.762 97.792C142.335 98.4747 141.781 98.816 141.098 98.816Z" fill="url(#paint4_linear_5_92)"/>
<path d="M83.6643 120.064C80.1656 120.064 76.2829 120.277 72.0163 120.704C71.8456 120.448 71.7603 119.936 71.7603 119.168C71.7603 118.4 71.8456 117.845 72.0163 117.504C73.8083 117.504 75.1309 117.333 75.9843 116.992C76.8376 116.565 77.3496 116.224 77.5203 115.968C77.9469 114.944 78.1603 112.299 78.1603 108.032V97.024C78.1603 96.3413 78.0749 95.3173 77.9043 93.952C77.7336 92.5867 77.5629 91.7333 77.3923 91.392C76.7949 90.2827 75.0029 89.728 72.0163 89.728C71.8456 89.6427 71.7603 89.216 71.7603 88.448C71.8456 87.5947 71.9736 87.168 72.1443 87.168C75.3869 86.912 78.5443 86.3147 81.6163 85.376C84.6883 84.352 87.0349 83.456 88.6563 82.688C88.9123 82.7733 89.2109 82.9867 89.5523 83.328C89.8936 83.6693 90.0216 83.9253 89.9363 84.096C89.9363 84.2667 89.8936 84.6507 89.8083 85.248C89.7229 85.8453 89.6376 86.528 89.5523 87.296C89.4669 87.9787 89.3816 88.6613 89.2963 89.344C89.2109 90.0267 89.1683 90.496 89.1683 90.752C89.1683 90.9227 89.2536 91.0507 89.4243 91.136C89.5949 91.136 89.6803 91.0933 89.6803 91.008C91.2163 88.448 92.4963 86.656 93.5203 85.632C95.7389 83.584 98.0003 82.56 100.304 82.56C102.864 82.56 104.614 83.0293 105.552 83.968C106.235 84.992 106.576 86.144 106.576 87.424C106.576 88.6187 106.448 89.6427 106.192 90.496C105.936 91.264 105.552 91.9893 105.04 92.672C104.016 94.1227 102.822 94.848 101.456 94.848C100.688 94.848 100.006 94.592 99.4083 94.08C98.8963 93.568 98.3843 93.0987 97.8723 92.672C97.4456 92.2453 96.9763 91.8613 96.4643 91.52C96.0376 91.0933 95.4403 90.88 94.6723 90.88C93.9043 90.88 93.1789 91.1787 92.4963 91.776C91.8136 92.288 91.2163 92.928 90.7043 93.696C89.6803 95.232 89.1683 96.5973 89.1683 97.792V108.032C89.1683 112.299 89.2963 114.773 89.5523 115.456C89.8083 116.053 90.1496 116.48 90.5763 116.736C91.0029 116.907 91.4723 117.077 91.9843 117.248C92.8376 117.419 93.7336 117.504 94.6723 117.504C94.8429 117.845 94.9283 118.4 94.9283 119.168C94.9283 119.936 94.8429 120.448 94.6723 120.704C90.4056 120.277 86.7363 120.064 83.6643 120.064Z" fill="url(#paint5_linear_5_92)"/>
<path d="M49.064 76.8C47.6987 74.0693 45.9067 71.8507 43.688 70.144C41.5547 68.4373 39.08 67.584 36.264 67.584C33.448 67.584 31.1867 68.2667 29.48 69.632C27.7733 70.9973 26.408 72.704 25.384 74.752C23.5067 78.592 22.568 83.5413 22.568 89.6C22.568 97.024 23.8053 103.253 26.28 108.288C29.352 114.432 33.7467 117.504 39.464 117.504C44.1573 117.504 47.656 115.115 49.96 110.336C51.9227 106.411 52.904 101.504 52.904 95.616C52.904 88.1067 51.624 81.8347 49.064 76.8ZM37.672 64C41.4267 64 45.0107 64.768 48.424 66.304C51.9227 67.7547 54.9947 69.8027 57.64 72.448C60.3707 75.008 62.504 78.0373 64.04 81.536C65.6613 85.0347 66.472 88.7467 66.472 92.672C66.472 96.5973 65.6613 100.309 64.04 103.808C62.504 107.221 60.3707 110.251 57.64 112.896C54.9947 115.456 51.9227 117.504 48.424 119.04C45.0107 120.491 41.4267 121.216 37.672 121.216C30.1627 121.216 23.5493 118.443 17.832 112.896C15.1013 110.251 12.9253 107.221 11.304 103.808C9.768 100.309 9 96.5973 9 92.672C9 88.7467 9.768 85.0347 11.304 81.536C12.9253 78.0373 15.1013 75.008 17.832 72.448C23.5493 66.816 30.1627 64 37.672 64Z" fill="url(#paint6_linear_5_92)"/>
</g>
<defs>
<linearGradient id="paint0_linear_5_92" x1="276.286" y1="82.432" x2="276.286" y2="120.96" gradientUnits="userSpaceOnUse">
<stop stop-color="#DBFFFE"/>
<stop offset="1" stop-color="#9DAAD3"/>
</linearGradient>
<linearGradient id="paint1_linear_5_92" x1="242.541" y1="70.3744" x2="242.541" y2="120.96" gradientUnits="userSpaceOnUse">
<stop stop-color="#DBFFFE"/>
<stop offset="1" stop-color="#9DAAD3"/>
</linearGradient>
<linearGradient id="paint2_linear_5_92" x1="211.103" y1="82.56" x2="211.103" y2="121.088" gradientUnits="userSpaceOnUse">
<stop stop-color="#DBFFFE"/>
<stop offset="1" stop-color="#9DAAD3"/>
</linearGradient>
<linearGradient id="paint3_linear_5_92" x1="169.992" y1="82.688" x2="169.992" y2="120.704" gradientUnits="userSpaceOnUse">
<stop stop-color="#DBFFFE"/>
<stop offset="1" stop-color="#9DAAD3"/>
</linearGradient>
<linearGradient id="paint4_linear_5_92" x1="126.634" y1="82.56" x2="126.634" y2="121.088" gradientUnits="userSpaceOnUse">
<stop stop-color="#DBFFFE"/>
<stop offset="1" stop-color="#9DAAD3"/>
</linearGradient>
<linearGradient id="paint5_linear_5_92" x1="89.1683" y1="82.56" x2="89.1683" y2="120.704" gradientUnits="userSpaceOnUse">
<stop stop-color="#DBFFFE"/>
<stop offset="1" stop-color="#9DAAD3"/>
</linearGradient>
<linearGradient id="paint6_linear_5_92" x1="37.736" y1="64" x2="37.736" y2="121.216" gradientUnits="userSpaceOnUse">
<stop stop-color="#DBFFFE"/>
<stop offset="1" stop-color="#9DAAD3"/>
</linearGradient>
</defs>
</svg>
